<svg width="20" height="20" viewBox="0 0 20 20" fill="none" xmlns="http://www.w3.org/2000/svg">
    <path d="M9.53125 0.806641C9.70323 0.398163 10.2968 0.398159 10.4688 0.806641L12.4971 5.625C12.7155 6.14358 13.2076 6.49471 13.7676 6.53906L19.0332 6.95605C19.4909 6.99232 19.6545 7.54121 19.3242 7.82129L15.3115 11.2168C14.8819 11.5804 14.6919 12.1542 14.8242 12.7021L16.0508 17.7783C16.1502 18.1902 15.6892 18.5518 15.291 18.3115H15.29L10.7832 15.5918C10.3023 15.3016 9.6977 15.3016 9.2168 15.5918L4.70898 18.3115C4.31078 18.5518 3.84983 18.1902 3.94922 17.7783L5.17578 12.7021C5.30809 12.1543 5.11814 11.5805 4.68848 11.2168L0.675781 7.82129C0.345442 7.54122 0.509097 6.99231 0.966797 6.95605L6.23242 6.53906C6.79243 6.49471 7.28456 6.14369 7.50293 5.625L9.53125 0.806641Z" fill="url(#paint0_linear_8242_16265)" stroke="#02060A"/>
    <defs>
        <linearGradient id="paint0_linear_8242_16265" x1="0" y1="9.37158" x2="20" y2="9.37158" gradientUnits="userSpaceOnUse">
            <stop offset="0.5" stop-color="#080c09"/>
            <stop offset="0.5" stop-color="#080c09" stop-opacity="0"/>
        </linearGradient>
    </defs>
</svg>