<svg aria-hidden="true" style="position: absolute; width: 0; height: 0; overflow: hidden;" version="1.1" xmlns="http://www.w3.org/2000/svg" xmlns:xlink="http://www.w3.org/1999/xlink">
  <defs>
  <symbol id="menu" viewBox="0 0 24 24">
    <path d="M4 6H20V8H4V6ZM4 11H20V13H4V11ZM4 16H20V18H4V16Z"/>
  </symbol>
  <symbol id="arrow-back" viewBox="0 0 24 24">
    <path d="M20.9999 11H6.41394L11.7069 5.70697L10.2929 4.29297L2.58594 12L10.2929 19.707L11.7069 18.293L6.41394 13H20.9999V11Z"/>
  </symbol>
  <symbol id="right-arrow-alt" viewBox="0 0 24 24">
    <path d="M11.293 17.293L12.707 18.707L19.414 12L12.707 5.29297L11.293 6.70697L15.586 11H6V13H15.586L11.293 17.293Z"/>
  </symbol>
  <symbol id="left-arrow-alt" viewBox="0 0 24 24">
    <path d="M12.7069 17.293L8.41394 13H17.9999V11H8.41394L12.7069 6.70697L11.2929 5.29297L4.58594 12L11.2929 18.707L12.7069 17.293Z"/>
  </symbol>
  <symbol id="down-arrow-alt" viewBox="0 0 24 24">
    <path d="M18.707 12.707L17.293 11.293L13 15.586V6H11V15.586L6.70697 11.293L5.29297 12.707L12 19.414L18.707 12.707Z"/>
  </symbol>
  <symbol id="up-arrow-alt" viewBox="0 0 24 24">
    <path d="M11 8.41394V17.9999H13V8.41394L17.293 12.7069L18.707 11.2929L12 4.58594L5.29297 11.2929L6.70697 12.7069L11 8.41394Z"/>
  </symbol>
  <symbol id="chevron-right" viewBox="0 0 24 24">
    <path d="M9.70697 16.9496L15.414 11.2426L9.70697 5.53564L8.29297 6.94964L12.586 11.2426L8.29297 15.5356L9.70697 16.9496Z"/>
  </symbol>
  <symbol id="chevron-left" viewBox="0 0 24 24">
    <path d="M13.2929 6.29297L7.58594 12L13.2929 17.707L14.7069 16.293L10.4139 12L14.7069 7.70697L13.2929 6.29297Z"/>
  </symbol>
  <symbol id="chevron-down" viewBox="0 0 24 24">
    <path d="M16.293 8.29297L12 12.586L7.70697 8.29297L6.29297 9.70697L12 15.414L17.707 9.70697L16.293 8.29297Z"/>
  </symbol>
  <symbol id="chevron-up" viewBox="0 0 24 24">
    <path d="M6.29297 14.2929L7.70697 15.7069L12 11.4139L16.293 15.7069L17.707 14.2929L12 8.58594L6.29297 14.2929Z"/>
  </symbol>
  <symbol id="star" viewBox="0 0 24 24">
    <path d="M6.51603 14.323L5.02603 20.775C4.97989 20.9704 4.99374 21.1751 5.06577 21.3625C5.1378 21.5499 5.26467 21.7112 5.4298 21.8253C5.59492 21.9395 5.79064 22.0012 5.99138 22.0024C6.19212 22.0036 6.38855 21.9442 6.55503 21.832L12 18.202L17.445 21.832C17.6154 21.9451 17.8162 22.0033 18.0207 21.9988C18.2251 21.9944 18.4232 21.9274 18.5884 21.8069C18.7536 21.6865 18.878 21.5183 18.9448 21.3251C19.0116 21.1318 19.0176 20.9228 18.962 20.726L17.133 14.326L21.669 10.244C21.8143 10.1132 21.9181 9.94266 21.9674 9.75351C22.0168 9.56436 22.0097 9.36488 21.9469 9.17974C21.8841 8.99461 21.7685 8.83193 21.6142 8.71183C21.46 8.59173 21.2739 8.51947 21.079 8.504L15.378 8.05L12.911 2.589C12.8324 2.41316 12.7045 2.26384 12.5428 2.15906C12.3812 2.05429 12.1927 1.99854 12 1.99854C11.8074 1.99854 11.6189 2.05429 11.4572 2.15906C11.2956 2.26384 11.1677 2.41316 11.089 2.589L8.62203 8.05L2.92103 8.503C2.72948 8.51818 2.54636 8.58821 2.39358 8.70473C2.2408 8.82125 2.12482 8.97932 2.05952 9.16003C1.99422 9.34074 1.98236 9.53644 2.02537 9.72371C2.06838 9.91098 2.16443 10.0819 2.30203 10.216L6.51603 14.323ZM9.36903 9.997C9.54752 9.98294 9.71895 9.92112 9.86533 9.81802C10.0117 9.71491 10.1277 9.57433 10.201 9.411L12 5.43L13.799 9.411C13.8724 9.57433 13.9883 9.71491 14.1347 9.81802C14.2811 9.92112 14.4525 9.98294 14.631 9.997L18.603 10.312L15.332 13.256C15.048 13.512 14.935 13.906 15.039 14.274L16.292 18.659L12.556 16.168C12.392 16.0579 12.199 15.9992 12.0015 15.9992C11.804 15.9992 11.611 16.0579 11.447 16.168L7.54303 18.771L8.59303 14.225C8.63153 14.0578 8.62636 13.8835 8.57802 13.7189C8.52969 13.5543 8.43981 13.4048 8.31703 13.285L5.27903 10.323L9.36903 9.997Z"/>
  </symbol>
  <symbol id="x" viewBox="0 0 24 24">
    <path d="M16.192 6.34424L11.949 10.5862L7.70697 6.34424L6.29297 7.75824L10.535 12.0002L6.29297 16.2422L7.70697 17.6562L11.949 13.4142L16.192 17.6562L17.606 16.2422L13.364 12.0002L17.606 7.75824L16.192 6.34424Z"/>
  </symbol>
  <symbol id="plus" viewBox="0 0 24 24">
    <path d="M19 11H13V5H11V11H5V13H11V19H13V13H19V11Z"/>
  </symbol>
  <symbol id="minus" viewBox="0 0 24 24">
    <path d="M5 11H19V13H5V11Z"/>
  </symbol>
  <symbol id="youtube" viewBox="0 0 24 24">
    <path d="M21.5933 7.20301C21.4794 6.78041 21.2568 6.39501 20.9477 6.08518C20.6386 5.77534 20.2537 5.55187 19.8313 5.43701C18.2653 5.00701 12.0003 5.00001 12.0003 5.00001C12.0003 5.00001 5.73633 4.99301 4.16933 5.40401C3.74725 5.52415 3.36315 5.75078 3.0539 6.06214C2.74464 6.3735 2.52062 6.75913 2.40333 7.18201C1.99033 8.74801 1.98633 11.996 1.98633 11.996C1.98633 11.996 1.98233 15.26 2.39233 16.81C2.62233 17.667 3.29733 18.344 4.15533 18.575C5.73733 19.005 11.9853 19.012 11.9853 19.012C11.9853 19.012 18.2503 19.019 19.8163 18.609C20.2388 18.4943 20.6241 18.2714 20.934 17.9622C21.2439 17.653 21.4677 17.2682 21.5833 16.846C21.9973 15.281 22.0003 12.034 22.0003 12.034C22.0003 12.034 22.0203 8.76901 21.5933 7.20301ZM9.99633 15.005L10.0013 9.00501L15.2083 12.01L9.99633 15.005Z"/>
  </symbol>
  <symbol id="instagram" viewBox="0 0 24 24">
    <path d="M11.9988 4.62091C14.4032 4.62091 14.6878 4.63159 15.6332 4.67378C16.5123 4.71258 16.9864 4.85994 17.303 4.98311C17.7215 5.14509 18.0235 5.34194 18.3362 5.65465C18.6528 5.97129 18.8458 6.26994 19.0111 6.68838C19.1343 7.00503 19.2816 7.48253 19.3204 8.35822C19.3626 9.3076 19.3733 9.59218 19.3733 11.9932C19.3733 14.3942 19.3626 14.6821 19.3204 15.6281C19.2816 16.5072 19.1343 16.9813 19.0111 17.298C18.8491 17.7164 18.6528 18.0184 18.3396 18.3311C18.0229 18.6478 17.7243 18.8407 17.3064 19.0061C16.9898 19.1292 16.5117 19.2766 15.6366 19.3154C14.6872 19.3576 14.4026 19.3683 12.0016 19.3683C9.60062 19.3683 9.31266 19.3576 8.36666 19.3154C7.48759 19.2766 7.01346 19.1292 6.69682 19.0061C6.27838 18.8441 5.97635 18.6478 5.66308 18.3345C5.34644 18.0179 5.15353 17.7192 4.98817 17.3013C4.865 16.9847 4.71765 16.5066 4.67884 15.6315C4.63666 14.6821 4.62597 14.3975 4.62597 11.9965C4.62597 9.59556 4.63666 9.3076 4.67884 8.3616C4.71765 7.48253 4.865 7.0084 4.98817 6.69176C5.15015 6.27331 5.347 5.97129 5.65971 5.65802C5.97635 5.34137 6.275 5.14846 6.69344 4.98311C7.01009 4.85994 7.48759 4.71258 8.36328 4.67378C9.30872 4.63159 9.59387 4.62091 11.9982 4.62091H11.9988ZM11.9988 3.00056C9.55563 3.00056 9.25023 3.01125 8.29017 3.05343C7.33405 3.09561 6.67657 3.25028 6.1074 3.47187C5.51348 3.70359 5.01067 4.00955 4.5118 4.51236C4.00899 5.01179 3.70303 5.51404 3.47131 6.10459C3.24972 6.6777 3.09505 7.33123 3.05287 8.28736C3.01069 9.25079 3 9.55619 3 11.9994C3 14.4425 3.01069 14.7479 3.05287 15.708C3.09505 16.6641 3.24972 17.3216 3.47131 17.8908C3.70359 18.4847 4.00899 18.9875 4.5118 19.4864C5.01067 19.9852 5.51348 20.2951 6.10402 20.5235C6.67713 20.7451 7.33067 20.8997 8.28679 20.9419C9.24629 20.9841 9.55225 20.9948 11.9954 20.9948C14.4386 20.9948 14.7446 20.9841 15.7041 20.9419C16.6602 20.8997 17.3177 20.7451 17.8868 20.5235C18.4774 20.2951 18.9802 19.9858 19.4791 19.4864C19.9779 18.9869 20.2878 18.4847 20.5162 17.8941C20.7378 17.321 20.8924 16.6675 20.9346 15.7114C20.9768 14.7519 20.9875 14.4459 20.9875 12.0027C20.9875 9.55956 20.9768 9.25417 20.9346 8.29411C20.8924 7.33798 20.7378 6.68051 20.5162 6.11133C20.2946 5.51348 19.9886 5.01123 19.4864 4.5118C18.9875 4.01293 18.4847 3.70303 17.8941 3.47469C17.321 3.25309 16.6675 3.09842 15.7114 3.05624C14.7485 3.01069 14.4425 3 11.9994 3L11.9988 3.00056Z"/>
    <path d="M11.9985 7.37671C9.44683 7.37671 7.37598 9.447 7.37598 11.9993C7.37598 14.5516 9.44626 16.6219 11.9985 16.6219C14.5508 16.6219 16.6211 14.5516 16.6211 11.9993C16.6211 9.44756 14.5508 7.37671 11.9985 7.37671ZM11.9985 14.9976C10.3428 14.9976 9.00026 13.6551 9.00026 11.9993C9.00026 10.3435 10.3428 9.00099 11.9985 9.00099C13.6543 9.00099 14.9968 10.3435 14.9968 11.9993C14.9968 13.6551 13.6543 14.9976 11.9985 14.9976Z"/>
    <path d="M17.8822 7.19404C17.8822 7.79021 17.3991 8.27333 16.8029 8.27333C16.2068 8.27333 15.7236 7.79021 15.7236 7.19404C15.7236 6.59787 16.2068 6.11475 16.8029 6.11475C17.3991 6.11475 17.8822 6.59787 17.8822 7.19404Z"/>
  </symbol>
  <symbol id="facebook" viewBox="0 0 24 24">
    <path d="M22 12.3038C22 6.74719 17.5229 2.24268 12 2.24268C6.47715 2.24268 2 6.74719 2 12.3038C2 17.3255 5.65684 21.4879 10.4375 22.2427V15.2121H7.89844V12.3038H10.4375V10.0872C10.4375 7.56564 11.9305 6.1728 14.2146 6.1728C15.3088 6.1728 16.4531 6.36931 16.4531 6.36931V8.84529H15.1922C13.95 8.84529 13.5625 9.6209 13.5625 10.4166V12.3038H16.3359L15.8926 15.2121H13.5625V22.2427C18.3432 21.4879 22 17.3257 22 12.3038Z"/>
  </symbol>
  <symbol id="icon-Company-Logo" viewBox="0 0 75 32">
    <path d="M8.773 8.259c4.376-0.408 8.253 2.811 8.657 7.187s-2.819 8.25-7.195 8.649c-4.37 0.399-8.237-2.818-8.641-7.188s2.81-8.24 7.179-8.648zM10.359 23.253c3.906-0.469 6.692-4.017 6.221-7.923s-4.021-6.69-7.927-6.216c-3.902 0.473-6.683 4.019-6.212 7.922s4.015 6.686 7.918 6.217z"></path>
    <path d="M12.624 12.039l0.915-0.006c0.018 2.642 0.019 5.284 0.004 7.925l-0.946 0.012-0.001-4.964-0.004-1.359c-0.529 1.003-1.129 1.968-1.701 2.947-0.362 0.62-0.699 1.332-1.148 1.89-0.107 0.039-0.223 0.042-0.335 0.017-0.036-0.009-0.113-0.037-0.14-0.059-0.242-0.193-2.517-4.189-2.88-4.795 0.093 0.719 0.035 1.503 0.034 2.228l-0.003 4.076-0.968 0.003c0.030-2.637-0.017-5.277 0.008-7.915l1.054 0.005c0.469 0.838 0.971 1.658 1.457 2.486 0.516 0.88 1.019 1.77 1.568 2.631 0.558-1.019 1.182-2.007 1.782-3.003 0.425-0.705 0.827-1.448 1.303-2.119z"></path>
    <path d="M61.084 13.921c0.187-0.013 0.379-0.018 0.566-0.014 0.698 0.012 1.41 0.386 1.888 0.88 0.595 0.616 0.872 1.476 0.852 2.324-0.020 0.863-0.343 1.683-0.978 2.275-0.563 0.524-1.285 0.805-2.056 0.776-0.883-0.033-1.469-0.405-2.061-1.038-0.023 0.362-0.016 0.728-0.020 1.091 0.004 0.72 0.003 1.441-0.003 2.162-0.336 0.033-0.675 0.030-1.010-0.009 0.055-1.115 0.006-2.258 0.007-3.376 0-1.664 0.026-3.332-0.011-4.995l0.999-0.004c-0.020 0.371-0.015 0.746-0.021 1.118 0.542-0.676 0.993-1.001 1.848-1.19zM61.517 19.27c0.621-0.117 1.103-0.37 1.467-0.906 0.357-0.534 0.485-1.188 0.355-1.817-0.111-0.56-0.443-1.090-0.931-1.396-0.384-0.241-0.8-0.307-1.243-0.295-0.616 0.116-1.115 0.336-1.484 0.873-0.348 0.506-0.497 1.226-0.38 1.827 0.112 0.578 0.453 1.084 0.948 1.402 0.395 0.248 0.81 0.319 1.268 0.311z"></path>
    <path d="M42.437 11.415c0.163 0.167 0.214 0.609 0.31 0.846-1.049 0.44-2.569 0.35-3.412 1.155-0.504 0.482-0.625 1.148-0.635 1.812 0.451-0.557 0.946-1.009 1.686-1.133 0.748-0.125 1.54 0.020 2.153 0.476 0.659 0.49 1.025 1.201 1.135 2.006 0.126 0.925-0.104 1.798-0.672 2.537-0.411 0.456-0.89 0.794-1.492 0.941-0.763 0.187-1.634 0.090-2.306-0.327-0.767-0.476-1.208-1.262-1.4-2.127-0.286-1.292-0.23-3.223 0.515-4.369 0.657-1.012 1.648-1.212 2.75-1.474 0.458-0.109 0.909-0.243 1.368-0.344zM40.693 19.275c0.649-0.096 1.132-0.252 1.536-0.81 0.396-0.547 0.524-1.238 0.401-1.895-0.099-0.531-0.379-1.016-0.834-1.316-0.279-0.184-0.603-0.29-0.937-0.306-0.632 0.071-1.152 0.201-1.572 0.723-0.395 0.489-0.563 1.15-0.476 1.77 0.080 0.566 0.389 1.11 0.853 1.447 0.314 0.228 0.651 0.328 1.029 0.387z"></path>
    <path d="M28.227 11.817c0.369-0.037 0.753-0.019 1.125-0.022-0.050 2.718 0.010 5.444-0.006 8.164l-0.979-0.010 0.002-4.809c-0.003-0.551-0.014-1.103 0.020-1.653-0.902 1.666-1.716 3.405-2.704 5.021l-0.636-0.003c-0.973-1.596-1.783-3.315-2.683-4.954 0.035 0.752 0.011 1.515 0.012 2.268l0.002 4.14c-0.326-0.009-0.651 0.013-0.978-0.003l0-4.953c0.001-1.065-0.020-2.136 0.038-3.199l1.089 0.001c0.31 0.531 0.573 1.1 0.854 1.646 0.652 1.268 1.298 2.551 2.002 3.791 1.035-1.754 1.854-3.644 2.843-5.425z"></path>
    <path d="M33.262 13.923c0.149-0.008 0.299-0.014 0.448-0.017 0.784-0.013 1.565 0.201 2.13 0.769 0.756 0.76 0.831 1.717 0.831 2.729-1.631 0.021-3.265-0.001-4.897 0.006 0.050 0.269 0.101 0.527 0.229 0.773 0.255 0.492 0.698 0.859 1.228 1.020 0.634 0.192 1.272 0.079 1.843-0.235 0.191-0.13 0.366-0.282 0.545-0.43 0.256 0.146 0.515 0.268 0.786 0.385-0.403 0.543-0.922 0.939-1.578 1.119-0.841 0.23-1.866 0.14-2.623-0.306-0.664-0.392-1.141-1.036-1.32-1.786-0.224-0.902-0.099-1.888 0.39-2.681 0.472-0.764 1.133-1.142 1.989-1.346zM31.785 16.641c0.808-0.006 1.616-0.009 2.424-0.007l1.51 0.001c-0.147-0.62-0.295-1.194-0.872-1.557-0.422-0.266-0.934-0.306-1.419-0.265-0.525 0.121-0.967 0.36-1.266 0.822-0.203 0.313-0.293 0.649-0.377 1.007z"></path>
    <path d="M53.556 13.921c0.147-0.007 0.293-0.012 0.44-0.015 0.782-0.008 1.563 0.223 2.121 0.794 0.734 0.751 0.802 1.709 0.798 2.7-1.624 0.025-3.253 0.005-4.878 0.009 0.022 0.296 0.073 0.552 0.212 0.818 0.256 0.494 0.681 0.82 1.211 0.976 0.709 0.208 1.355 0.054 1.982-0.293 0.153-0.105 0.289-0.234 0.428-0.358 0.258 0.139 0.519 0.251 0.79 0.359-0.425 0.558-0.953 0.963-1.64 1.137-0.853 0.216-1.833 0.134-2.595-0.326-0.676-0.408-1.14-1.081-1.318-1.847-0.203-0.875-0.061-1.882 0.428-2.64s1.158-1.126 2.020-1.312zM52.027 16.639c0.773-0.002 1.548-0.013 2.321-0.005l1.639-0.001c-0.17-0.637-0.348-1.258-0.965-1.609-0.382-0.217-0.847-0.254-1.279-0.211-0.512 0.085-0.944 0.277-1.262 0.705-0.251 0.339-0.359 0.717-0.456 1.12z"></path>
    <path d="M70.427 14.007c0.99-0.046 1.994-0.013 2.985-0.010-0.051 1.981-0.005 3.976-0.006 5.959l-1.019-0.011-0.001-2.036c-0.487-0.003-1.128-0.098-1.593 0.012-0.145 0.034-0.171 0.108-0.252 0.22-0.344 0.61-0.727 1.199-1.072 1.81-0.385 0.009-0.771 0.010-1.156 0.003 0.377-0.708 0.889-1.609 1.388-2.222-0.059-0.029-0.118-0.060-0.176-0.091-0.435-0.24-0.768-0.627-0.896-1.112-0.133-0.505-0.060-1.082 0.21-1.531 0.364-0.605 0.935-0.838 1.588-0.992zM71.472 17.055c0.301-0.003 0.608 0.007 0.908-0.015-0.004-0.705-0.002-1.409 0.005-2.114-0.598-0.002-1.204-0.018-1.801 0.015-0.377 0.118-0.671 0.245-0.874 0.608-0.135 0.241-0.171 0.56-0.080 0.822 0.088 0.254 0.292 0.432 0.532 0.54 0.405 0.183 0.876 0.147 1.31 0.143z"></path>
    <path d="M45.744 14.062c1.291-0.047 2.593-0.016 3.886-0.019l-0.006 5.913c-0.322-0.005-0.645-0.018-0.965 0.026l-0.005-5.008-0.548 0.022c-0.489-0.024-0.989 0.008-1.479 0.020-0.013 1.192-0.018 3.663-0.853 4.545-0.416 0.44-0.887 0.485-1.455 0.489-0.004-0.311-0.021-0.618-0.043-0.928 0.148-0.014 0.306-0.024 0.45-0.060 0.899-0.227 0.914-3.196 0.937-3.944 0.009-0.292-0.056-0.816 0.080-1.054z"></path>
    <path d="M66.684 14.018l0.132-0.008c0.016 0.021 0.038 0.039 0.048 0.064 0.044 0.116-0.001 5.281-0.001 5.878l-0.866 0.006-0.064-0.013c-0.139-0.25 0-5.172-0.043-5.916 0.264 0.003 0.529-0.006 0.793-0.012z"></path>
    <path d="M65.873 11.788l0.996-0.003c-0.010 0.353-0.003 0.707 0.002 1.061l-1.025 0.008c0.015-0.355 0.024-0.71 0.026-1.065z"></path>
  </symbol>
  </defs>
</svg>
