<svg xmlns="http://www.w3.org/2000/svg" width="220" height="48" fill="none"><g fill="#fff" clip-path="url(#a)"><path d="M22.12.107C35.54-1.145 47.428 8.726 48.666 22.145c1.239 13.42-8.644 25.299-22.065 26.523C13.2 49.892 1.341 40.026.105 26.626-1.132 13.226 8.72 1.357 22.12.107m4.866 45.98c11.979-1.438 20.522-12.319 19.076-24.296C44.617 9.812 33.731 1.276 21.754 2.73 9.786 4.18 1.26 15.055 2.703 27.022 4.15 38.991 15.018 47.524 26.987 46.088"/><path d="m33.93 11.697 2.806-.019q.082 12.152.012 24.303l-2.902.037-.004-15.221-.014-4.168c-1.62 3.076-3.461 6.034-5.215 9.036-1.111 1.902-2.143 4.085-3.519 5.796-.328.12-.684.13-1.026.051-.111-.026-.345-.113-.43-.181-.742-.592-7.718-12.847-8.832-14.705.286 2.203.106 4.608.105 6.833l-.009 12.499-2.967.01c.091-8.088-.054-16.181.024-24.27l3.232.016c1.437 2.57 2.978 5.085 4.469 7.624 1.583 2.699 3.125 5.43 4.808 8.068 1.712-3.126 3.626-6.156 5.466-9.21 1.303-2.162 2.535-4.44 3.995-6.499M182.536 17.47a21 21 0 0 1 1.735-.044c2.14.038 4.325 1.182 5.79 2.7 1.825 1.89 2.673 4.525 2.612 7.126-.062 2.646-1.054 5.161-3.001 6.976-1.726 1.608-3.938 2.47-6.304 2.38-2.708-.101-4.504-1.242-6.321-3.181-.07 1.11-.049 2.232-.06 3.345q.019 3.313-.009 6.628a14.4 14.4 0 0 1-3.097-.029c.168-3.42.02-6.923.021-10.353 0-5.101.081-10.216-.034-15.316l3.065-.012c-.06 1.138-.046 2.288-.063 3.428 1.66-2.072 3.045-3.071 5.666-3.649m1.328 16.401c1.905-.357 3.381-1.134 4.499-2.779a7.36 7.36 0 0 0 1.089-5.57c-.342-1.718-1.359-3.342-2.855-4.28-1.177-.74-2.452-.942-3.812-.904-1.888.357-3.419 1.03-4.551 2.676-1.067 1.55-1.526 3.758-1.166 5.602a6.6 6.6 0 0 0 2.908 4.3c1.209.76 2.486.98 3.888.955M125.351 9.783c.5.514.655 1.868.952 2.593-3.216 1.35-7.878 1.072-10.464 3.543-1.546 1.477-1.915 3.52-1.948 5.557 1.384-1.709 2.9-3.094 5.169-3.473 2.293-.383 4.722.06 6.603 1.46 2.02 1.503 3.144 3.683 3.482 6.152.387 2.838-.32 5.514-2.061 7.78-1.261 1.4-2.728 2.434-4.576 2.886-2.339.574-5.01.277-7.072-1.003-2.351-1.46-3.705-3.87-4.291-6.521-.877-3.962-.705-9.883 1.579-13.4 2.013-3.102 5.054-3.716 8.433-4.52 1.403-.333 2.787-.744 4.194-1.054m-5.347 24.105c1.992-.295 3.473-.772 4.711-2.483 1.214-1.677 1.606-3.795 1.229-5.81-.303-1.628-1.16-3.116-2.557-4.036a5.7 5.7 0 0 0-2.873-.939c-1.938.217-3.531.618-4.821 2.217-1.21 1.5-1.728 3.527-1.46 5.428.243 1.734 1.192 3.404 2.616 4.438.963.699 1.997 1.005 3.155 1.185M81.779 11.018c1.132-.114 2.31-.06 3.448-.068-.153 8.336.03 16.696-.018 25.035l-3.002-.03.005-14.745c-.008-1.69-.043-3.383.06-5.07-2.766 5.11-5.262 10.443-8.292 15.397l-1.95-.01C69.044 26.634 66.56 21.36 63.8 16.334c.108 2.305.035 4.647.037 6.956l.006 12.697c-1-.026-1.997.039-3-.008l.002-15.19c.002-3.264-.061-6.55.117-9.81l3.34.002c.95 1.627 1.757 3.372 2.619 5.048 2 3.89 3.981 7.822 6.14 11.626 3.173-5.38 5.684-11.174 8.717-16.637M97.218 17.476a44 44 0 0 1 1.375-.052c2.403-.04 4.798.616 6.531 2.357 2.317 2.33 2.548 5.266 2.548 8.368-5.002.064-10.011-.004-15.015.018.154.826.31 1.616.702 2.37a6.3 6.3 0 0 0 3.765 3.128c1.945.59 3.901.244 5.651-.72.587-.4 1.123-.867 1.67-1.318.785.449 1.58.823 2.41 1.182-1.235 1.665-2.826 2.879-4.84 3.43-2.58.706-5.722.43-8.045-.937a8.71 8.71 0 0 1-4.049-5.477c-.686-2.765-.303-5.789 1.198-8.22 1.445-2.344 3.475-3.503 6.099-4.13m-4.529 8.336q3.717-.03 7.434-.02l4.632.002c-.452-1.9-.905-3.663-2.674-4.776-1.294-.814-2.863-.938-4.353-.814-1.608.372-2.964 1.104-3.882 2.521-.621.96-.897 1.992-1.157 3.087M159.449 17.47q.674-.033 1.349-.045c2.397-.026 4.792.685 6.503 2.434 2.251 2.302 2.458 5.24 2.448 8.278-4.982.076-9.975.016-14.959.028.067.909.226 1.691.651 2.509.785 1.514 2.088 2.515 3.714 2.991 2.175.64 4.155.167 6.077-.9.469-.323.886-.718 1.313-1.096.79.425 1.591.769 2.423 1.1-1.303 1.712-2.924 2.954-5.029 3.487-2.617.664-5.621.41-7.957-1-2.073-1.252-3.495-3.315-4.04-5.665-.622-2.684-.188-5.77 1.312-8.097s3.551-3.452 6.195-4.024m-4.686 8.336c2.372-.007 4.746-.04 7.119-.015l5.027-.002c-.522-1.955-1.068-3.859-2.959-4.934-1.171-.667-2.598-.78-3.92-.646-1.569.26-2.895.85-3.869 2.16-.772 1.04-1.101 2.2-1.398 3.437M211.185 17.733c3.035-.142 6.114-.039 9.154-.03-.156 6.077-.017 12.193-.02 18.274l-3.126-.034-.002-6.242c-1.494-.01-3.46-.302-4.884.037-.445.106-.524.33-.774.676-1.054 1.871-2.228 3.678-3.287 5.55q-1.773.04-3.546.01c1.157-2.172 2.727-4.935 4.258-6.816a13 13 0 0 1-.54-.279c-1.335-.737-2.356-1.922-2.748-3.409-.406-1.55-.185-3.318.645-4.694 1.117-1.857 2.867-2.57 4.87-3.043m3.206 9.348c.923-.008 1.865.02 2.785-.046q-.018-3.24.017-6.482c-1.833-.007-3.692-.056-5.523.044-1.155.362-2.057.753-2.681 1.866-.413.74-.524 1.717-.245 2.52.27.78.895 1.326 1.63 1.658 1.242.561 2.687.452 4.017.44M135.493 17.901c3.959-.143 7.952-.05 11.915-.057l-.018 18.13c-.987-.013-1.978-.055-2.958.08l-.014-15.36-1.68.068c-1.499-.074-3.032.025-4.534.06-.042 3.655-.056 11.232-2.616 13.936-1.276 1.349-2.719 1.487-4.462 1.501a48 48 0 0 0-.133-2.845c.455-.042.937-.073 1.381-.185 2.755-.696 2.803-9.8 2.873-12.096.027-.895-.171-2.503.246-3.232M199.708 17.767l.405-.024c.048.066.118.12.148.198.135.356-.004 16.195-.003 18.026l-2.655.018-.196-.039c-.425-.768.002-15.861-.131-18.143.811.01 1.622-.017 2.432-.036M197.22 10.93l3.054-.01c-.032 1.084-.007 2.169.008 3.252l-3.144.024q.069-1.632.082-3.267"/></g><defs><clipPath id="a"><path fill="#fff" d="M0 0h220.338v48.771H0z"/></clipPath></defs></svg>